<!-- icons.svg -->
<svg xmlns="http://www.w3.org/2000/svg" style="display: none;">
  <!-- 홈 화면 메뉴 아이콘 -->
  <symbol id="icon-sprout" viewBox="0 0 24 24">
    <path d="M14 9.536V7a4 4 0 0 1 4-4h1.5a.5.5 0 0 1 .5.5V5a4 4 0 0 1-4 4 4 4 0 0 0-4 4c0 2 1 3 1 5a5 5 0 0 1-1 3"/><path d="M4 9a5 5 0 0 1 8 4 5 5 0 0 1-8-4"/><path d="M5 21h14"/>
  </symbol>
  <symbol id="icon-bookmark-check" viewBox="0 0 24 24">
    <path d="m19 21-7-4-7 4V5a2 2 0 0 1 2-2h10a2 2 0 0 1 2 2Z"/><path d="m9 10 2 2 4-4"/>
  </symbol>
  <symbol id="icon-medal" viewBox="0 0 24 24">
    <path d="M7.21 15 2.66 7.14a2 2 0 0 1 .13-2.2L4.4 2.8A2 2 0 0 1 6 2h12a2 2 0 0 1 1.6.8l1.6 2.14a2 2 0 0 1 .14 2.2L16.79 15"/><path d="M11 12 5.12 2.2"/><path d="m13 12 5.88-9.8"/><path d="M8 7h8"/><circle cx="12" cy="17" r="5"/><path d="M12 18v-2h-.5"/>
  </symbol>
  <symbol id="icon-case-sensitive" viewBox="0 0 24 24">
    <path d="m2 16 4.039-9.69a.5.5 0 0 1 .923 0L11 16"/><path d="M22 9v7"/><path d="M3.304 13h6.392"/><circle cx="18.5" cy="12.5" r="3.5"/>
  </symbol>
  <!-- [추가] 통계 아이콘 -->
  <symbol id="icon-chart-line" viewBox="0 0 24 24">
    <path d="M3 3v16a2 2 0 0 0 2 2h16"/><path d="m19 9-5 5-4-4-3 3"/>
  </symbol>
  <!-- [추가] About 아이콘 -->
  <symbol id="icon-message-more" viewBox="0 0 24 24">
    <path d="M2.992 16.342a2 2 0 0 1 .094 1.167l-1.065 3.29a1 1 0 0 0 1.236 1.168l3.413-.998a2 2 0 0 1 1.099.092 10 10 0 1 0-4.777-4.719"/><path d="M8 12h.01"/><path d="M12 12h.01"/><path d="M16 12h.01"/>
  </symbol>

  <!-- 학습 화면 컨트롤 아이콘 -->
  <symbol id="icon-arrow-left" viewBox="0 0 16 16">
    <path fill-rule="evenodd" d="M11.354 1.646a.5.5 0 0 1 0 .708L5.707 8l5.647 5.646a.5.5 0 0 1-.708.708l-6-6a.5.5 0 0 1 0-.708l6-6a.5.5 0 0 1 .708 0z"/>
  </symbol>
  <symbol id="icon-arrow-right" viewBox="0 0 16 16">
     <path fill-rule="evenodd" d="M4.646 1.646a.5.5 0 0 1 .708 0l6 6a.5.5 0 0 1 0 .708l-6 6a.5.5 0 0 1-.708-.708L10.293 8 4.646 2.354a.5.5 0 0 1 0-.708z"/>
  </symbol>
  <symbol id="icon-shuffle" viewBox="0 0 16 16">
    <path fill-rule="evenodd" d="M0 3.5A.5.5 0 0 1 .5 3H1c2.202 0 3.827 1.24 4.874 2.418.49.552.865 1.102 1.126 1.532.26-.43.636-.98 1.126-1.532C9.173 4.24 10.798 3 13 3v1c-1.798 0-3.173 1.01-4.126 2.082A9.6 9.6 0 0 0 7.556 8a9.6 9.6 0 0 0 1.317 1.918C9.828 10.99 11.204 12 13 12v1c-2.202 0-3.827-1.24-4.874-2.418A10.6 10.6 0 0 1 7 9.05c-.26.43-.636.98-1.126 1.532C4.827 11.76 3.202 13 1 13H.5a.5.5 0 0 1 0-1H1c1.798 0 3.173-1.01 4.126-2.082A9.6 9.6 0 0 0 6.444 8a9.6 9.6 0 0 0-1.317-1.918C4.172 5.01 2.796 4 1 4H.5a.5.5 0 0 1-.5-.5"/>
    <path d="M13 5.466V1.534a.25.25 0 0 1 .41-.192l2.36 1.966c.12.1.12.284 0 .384l-2.36 1.966a.25.25 0 0 1-.41-.192m0 9v-3.932a.25.25 0 0 1 .41-.192l2.36 1.966c.12.1.12.284 0 .384l-2.36 1.966a.25.25 0 0 1-.41-.192"/>
  </symbol>
  <symbol id="icon-volume-on" viewBox="0 0 16 16">
    <path d="M11.536 14.01A8.47 8.47 0 0 0 14.026 8a8.47 8.47 0 0 0-2.49-6.01l-.708.707A7.48 7.48 0 0 1 13.025 8c0 2.071-.84 3.946-2.197 5.303z"/><path d="M10.121 12.596A6.48 6.48 0 0 0 12.025 8a6.48 6.48 0 0 0-1.904-4.596l-.707.707A5.48 5.48 0 0 1 11.025 8a5.48 5.48 0 0 1-1.61 3.89z"/><path d="M8.707 11.182A4.5 4.5 0 0 0 10.025 8a4.5 4.5 0 0 0-1.318-3.182L8 5.525A3.5 3.5 0 0 1 9.025 8 3.5 3.5 0 0 1 8 10.475zM6.717 3.55A.5.5 0 0 1 7 4v8a.5.5 0 0 1-.812.39L3.825 10.5H1.5A.5.5 0 0 1 1 10V6a.5.5 0 0 1 .5-.5h2.325l2.363-1.89a.5.5 0 0 1 .529-.06"/>
  </symbol>
  <symbol id="icon-volume-off" viewBox="0 0 16 16">
    <path d="M6.717 3.55A.5.5 0 0 1 7 4v8a.5.5 0 0 1-.812.39L3.825 10.5H1.5A.5.5 0 0 1 1 10V6a.5.5 0 0 1 .5-.5h2.325l2.363-1.89a.5.5 0 0 1 .529-.06zm7.137 2.096a.5.5 0 0 1 0 .708L12.207 8l1.647 1.646a.5.5 0 0 1-.708.708L11.5 8.707l-1.646 1.647a.5.5 0 0 1-.708-.708L10.793 8 9.146 6.354a.5.5 0 0 1 .708-.708L11.5 7.293l1.646-1.647a.5.5 0 0 1 .708 0z"/>
  </symbol>
</svg>